{
  "asset": {
    "version": "2.0",
    "generator": "Codex BAT Animated Octopus Generator"
  },
  "scene": 0,
  "scenes": [
    {
      "name": "OctopusScene",
      "nodes": [
        0,
        1
      ]
    }
  ],
  "nodes": [
    {
      "name": "SK_Octopus",
      "mesh": 0,
      "skin": 0
    },
    {
      "name": "root",
      "children": [
        2,
        3,
        7,
        11,
        15,
        19,
        23,
        27,
        31
      ]
    },
    {
      "name": "body",
      "translation": [
        0,
        0,
        0
      ]
    },
    {
      "name": "tentacle_1_1",
      "translation": [
        0.58,
        0.22,
        0
      ],
      "children": [
        4
      ]
    },
    {
      "name": "tentacle_1_2",
      "translation": [
        0.9333333333333332,
        -0.17333333333333334,
        0
      ],
      "children": [
        5
      ]
    },
    {
      "name": "tentacle_1_3",
      "translation": [
        0.9333333333333331,
        -0.17333333333333334,
        0
      ],
      "children": [
        6
      ]
    },
    {
      "name": "tentacle_1_4",
      "translation": [
        0.9333333333333331,
        -0.17333333333333337,
        0
      ]
    },
    {
      "name": "tentacle_2_1",
      "translation": [
        0.41012193308819755,
        0.22,
        0.4101219330881975
      ],
      "children": [
        8
      ]
    },
    {
      "name": "tentacle_2_2",
      "translation": [
        0.6599663291074442,
        -0.17333333333333334,
        0.6599663291074442
      ],
      "children": [
        9
      ]
    },
    {
      "name": "tentacle_2_3",
      "translation": [
        0.6599663291074445,
        -0.17333333333333334,
        0.659966329107444
      ],
      "children": [
        10
      ]
    },
    {
      "name": "tentacle_2_4",
      "translation": [
        0.659966329107444,
        -0.17333333333333337,
        0.659966329107444
      ]
    },
    {
      "name": "tentacle_3_1",
      "translation": [
        3.551475717527324e-17,
        0.22,
        0.58
      ],
      "children": [
        12
      ]
    },
    {
      "name": "tentacle_3_2",
      "translation": [
        5.715018396020982e-17,
        -0.17333333333333334,
        0.9333333333333332
      ],
      "children": [
        13
      ]
    },
    {
      "name": "tentacle_3_3",
      "translation": [
        5.715018396020979e-17,
        -0.17333333333333334,
        0.9333333333333331
      ],
      "children": [
        14
      ]
    },
    {
      "name": "tentacle_3_4",
      "translation": [
        5.71501839602098e-17,
        -0.17333333333333337,
        0.9333333333333331
      ]
    },
    {
      "name": "tentacle_4_1",
      "translation": [
        -0.4101219330881975,
        0.22,
        0.41012193308819755
      ],
      "children": [
        16
      ]
    },
    {
      "name": "tentacle_4_2",
      "translation": [
        -0.6599663291074442,
        -0.17333333333333334,
        0.6599663291074442
      ],
      "children": [
        17
      ]
    },
    {
      "name": "tentacle_4_3",
      "translation": [
        -0.659966329107444,
        -0.17333333333333334,
        0.6599663291074445
      ],
      "children": [
        18
      ]
    },
    {
      "name": "tentacle_4_4",
      "translation": [
        -0.659966329107444,
        -0.17333333333333337,
        0.659966329107444
      ]
    },
    {
      "name": "tentacle_5_1",
      "translation": [
        -0.58,
        0.22,
        7.102951435054648e-17
      ],
      "children": [
        20
      ]
    },
    {
      "name": "tentacle_5_2",
      "translation": [
        -0.9333333333333332,
        -0.17333333333333334,
        1.1430036792041963e-16
      ],
      "children": [
        21
      ]
    },
    {
      "name": "tentacle_5_3",
      "translation": [
        -0.9333333333333331,
        -0.17333333333333334,
        1.1430036792041959e-16
      ],
      "children": [
        22
      ]
    },
    {
      "name": "tentacle_5_4",
      "translation": [
        -0.9333333333333331,
        -0.17333333333333337,
        1.143003679204196e-16
      ]
    },
    {
      "name": "tentacle_6_1",
      "translation": [
        -0.4101219330881976,
        0.22,
        -0.4101219330881975
      ],
      "children": [
        24
      ]
    },
    {
      "name": "tentacle_6_2",
      "translation": [
        -0.6599663291074445,
        -0.17333333333333334,
        -0.6599663291074442
      ],
      "children": [
        25
      ]
    },
    {
      "name": "tentacle_6_3",
      "translation": [
        -0.6599663291074445,
        -0.17333333333333334,
        -0.659966329107444
      ],
      "children": [
        26
      ]
    },
    {
      "name": "tentacle_6_4",
      "translation": [
        -0.6599663291074442,
        -0.17333333333333337,
        -0.659966329107444
      ]
    },
    {
      "name": "tentacle_7_1",
      "translation": [
        -1.0654427152581971e-16,
        0.22,
        -0.58
      ],
      "children": [
        28
      ]
    },
    {
      "name": "tentacle_7_2",
      "translation": [
        -1.7145055188062941e-16,
        -0.17333333333333334,
        -0.9333333333333332
      ],
      "children": [
        29
      ]
    },
    {
      "name": "tentacle_7_3",
      "translation": [
        -1.7145055188062937e-16,
        -0.17333333333333334,
        -0.9333333333333331
      ],
      "children": [
        30
      ]
    },
    {
      "name": "tentacle_7_4",
      "translation": [
        -1.7145055188062946e-16,
        -0.17333333333333337,
        -0.9333333333333331
      ]
    },
    {
      "name": "tentacle_8_1",
      "translation": [
        0.41012193308819744,
        0.22,
        -0.4101219330881976
      ],
      "children": [
        32
      ]
    },
    {
      "name": "tentacle_8_2",
      "translation": [
        0.6599663291074441,
        -0.17333333333333334,
        -0.6599663291074445
      ],
      "children": [
        33
      ]
    },
    {
      "name": "tentacle_8_3",
      "translation": [
        0.659966329107444,
        -0.17333333333333334,
        -0.6599663291074445
      ],
      "children": [
        34
      ]
    },
    {
      "name": "tentacle_8_4",
      "translation": [
        0.6599663291074442,
        -0.17333333333333337,
        -0.6599663291074442
      ]
    }
  ],
  "meshes": [
    {
      "name": "SK_Octopus",
      "primitives": [
        {
          "attributes": {
            "POSITION": 1,
            "NORMAL": 2,
            "TEXCOORD_0": 3,
            "JOINTS_0": 4,
            "WEIGHTS_0": 5
          },
          "indices": 6,
          "material": 0,
          "mode": 4
        },
        {
          "attributes": {
            "POSITION": 7,
            "NORMAL": 8,
            "TEXCOORD_0": 9,
            "JOINTS_0": 10,
            "WEIGHTS_0": 11
          },
          "indices": 12,
          "material": 1,
          "mode": 4
        },
        {
          "attributes": {
            "POSITION": 13,
            "NORMAL": 14,
            "TEXCOORD_0": 15,
            "JOINTS_0": 16,
            "WEIGHTS_0": 17
          },
          "indices": 18,
          "material": 2,
          "mode": 4
        }
      ]
    }
  ],
  "skins": [
    {
      "name": "SK_Octopus_Skeleton",
      "inverseBindMatrices": 0,
      "joints": [
        1,
        2,
        3,
        4,
        5,
        6,
        7,
        8,
        9,
        10,
        11,
        12,
        13,
        14,
        15,
        16,
        17,
        18,
        19,
        20,
        21,
        22,
        23,
        24,
        25,
        26,
        27,
        28,
        29,
        30,
        31,
        32,
        33,
        34
      ],
      "skeleton": 1
    }
  ],
  "materials": [
    {
      "name": "M_Octopus_Skin",
      "pbrMetallicRoughness": {
        "baseColorTexture": {
          "index": 0
        },
        "metallicFactor": 0,
        "roughnessFactor": 0.48
      },
      "normalTexture": {
        "index": 1,
        "scale": 0.7
      },
      "doubleSided": false
    },
    {
      "name": "M_Octopus_Eye",
      "pbrMetallicRoughness": {
        "baseColorFactor": [
          0.85,
          0.97,
          1,
          1
        ],
        "metallicFactor": 0,
        "roughnessFactor": 0.25
      }
    },
    {
      "name": "M_Octopus_Pupil",
      "pbrMetallicRoughness": {
        "baseColorFactor": [
          0.01,
          0.015,
          0.035,
          1
        ],
        "metallicFactor": 0,
        "roughnessFactor": 0.12
      }
    }
  ],
  "textures": [
    {
      "source": 0,
      "sampler": 0
    },
    {
      "source": 1,
      "sampler": 0
    }
  ],
  "images": [
    {
      "name": "T_Octopus_BaseColor",
      "uri": "Octopus_BaseColor.png"
    },
    {
      "name": "T_Octopus_Normal",
      "uri": "Octopus_Normal.png"
    }
  ],
  "samplers": [
    {
      "magFilter": 9729,
      "minFilter": 9987,
      "wrapS": 10497,
      "wrapT": 10497
    }
  ],
  "buffers": [
    {
      "uri": "SK_Octopus.bin",
      "byteLength": 212152
    }
  ],
  "bufferViews": [
    {
      "buffer": 0,
      "byteOffset": 0,
      "byteLength": 2176
    },
    {
      "buffer": 0,
      "byteOffset": 2176,
      "byteLength": 25596,
      "target": 34962
    },
    {
      "buffer": 0,
      "byteOffset": 27772,
      "byteLength": 25596,
      "target": 34962
    },
    {
      "buffer": 0,
      "byteOffset": 53368,
      "byteLength": 17064,
      "target": 34962
    },
    {
      "buffer": 0,
      "byteOffset": 70432,
      "byteLength": 17064,
      "target": 34962
    },
    {
      "buffer": 0,
      "byteOffset": 87496,
      "byteLength": 34128,
      "target": 34962
    },
    {
      "buffer": 0,
      "byteOffset": 121624,
      "byteLength": 47616,
      "target": 34963
    },
    {
      "buffer": 0,
      "byteOffset": 169240,
      "byteLength": 3960,
      "target": 34962
    },
    {
      "buffer": 0,
      "byteOffset": 173200,
      "byteLength": 3960,
      "target": 34962
    },
    {
      "buffer": 0,
      "byteOffset": 177160,
      "byteLength": 2640,
      "target": 34962
    },
    {
      "buffer": 0,
      "byteOffset": 179800,
      "byteLength": 2640,
      "target": 34962
    },
    {
      "buffer": 0,
      "byteOffset": 182440,
      "byteLength": 5280,
      "target": 34962
    },
    {
      "buffer": 0,
      "byteOffset": 187720,
      "byteLength": 6720,
      "target": 34963
    },
    {
      "buffer": 0,
      "byteOffset": 194440,
      "byteLength": 2808,
      "target": 34962
    },
    {
      "buffer": 0,
      "byteOffset": 197248,
      "byteLength": 2808,
      "target": 34962
    },
    {
      "buffer": 0,
      "byteOffset": 200056,
      "byteLength": 1872,
      "target": 34962
    },
    {
      "buffer": 0,
      "byteOffset": 201928,
      "byteLength": 1872,
      "target": 34962
    },
    {
      "buffer": 0,
      "byteOffset": 203800,
      "byteLength": 3744,
      "target": 34962
    },
    {
      "buffer": 0,
      "byteOffset": 207544,
      "byteLength": 4608,
      "target": 34963
    }
  ],
  "accessors": [
    {
      "bufferView": 0,
      "componentType": 5126,
      "count": 34,
      "type": "MAT4"
    },
    {
      "bufferView": 1,
      "componentType": 5126,
      "count": 2133,
      "type": "VEC3",
      "min": [
        -3.380000114440918,
        -0.3734000027179718,
        -3.380000114440918
      ],
      "max": [
        3.380000114440918,
        2.180000066757202,
        3.380000114440918
      ]
    },
    {
      "bufferView": 2,
      "componentType": 5126,
      "count": 2133,
      "type": "VEC3"
    },
    {
      "bufferView": 3,
      "componentType": 5126,
      "count": 2133,
      "type": "VEC2"
    },
    {
      "bufferView": 4,
      "componentType": 5123,
      "count": 2133,
      "type": "VEC4"
    },
    {
      "bufferView": 5,
      "componentType": 5126,
      "count": 2133,
      "type": "VEC4"
    },
    {
      "bufferView": 6,
      "componentType": 5125,
      "count": 11904,
      "type": "SCALAR",
      "min": [
        0
      ],
      "max": [
        2132
      ]
    },
    {
      "bufferView": 7,
      "componentType": 5126,
      "count": 330,
      "type": "VEC3",
      "min": [
        -0.5600000023841858,
        0.9800000190734863,
        -0.8369913697242737
      ],
      "max": [
        0.5600000023841858,
        1.5800000429153442,
        -0.6030086278915405
      ]
    },
    {
      "bufferView": 8,
      "componentType": 5126,
      "count": 330,
      "type": "VEC3"
    },
    {
      "bufferView": 9,
      "componentType": 5126,
      "count": 330,
      "type": "VEC2"
    },
    {
      "bufferView": 10,
      "componentType": 5123,
      "count": 330,
      "type": "VEC4"
    },
    {
      "bufferView": 11,
      "componentType": 5126,
      "count": 330,
      "type": "VEC4"
    },
    {
      "bufferView": 12,
      "componentType": 5125,
      "count": 1680,
      "type": "SCALAR",
      "min": [
        0
      ],
      "max": [
        329
      ]
    },
    {
      "bufferView": 13,
      "componentType": 5126,
      "count": 234,
      "type": "VEC3",
      "min": [
        -0.42500001192092896,
        1.1399999856948853,
        -0.875
      ],
      "max": [
        0.42500001192092896,
        1.4199999570846558,
        -0.7850000262260437
      ]
    },
    {
      "bufferView": 14,
      "componentType": 5126,
      "count": 234,
      "type": "VEC3"
    },
    {
      "bufferView": 15,
      "componentType": 5126,
      "count": 234,
      "type": "VEC2"
    },
    {
      "bufferView": 16,
      "componentType": 5123,
      "count": 234,
      "type": "VEC4"
    },
    {
      "bufferView": 17,
      "componentType": 5126,
      "count": 234,
      "type": "VEC4"
    },
    {
      "bufferView": 18,
      "componentType": 5125,
      "count": 1152,
      "type": "SCALAR",
      "min": [
        0
      ],
      "max": [
        233
      ]
    }
  ]
}
